<svg width="16" height="16" viewBox="0 0 16 16" fill="none" xmlns="http://www.w3.org/2000/svg">
<g clip-path="url(#clip0_1_1781)">
<path d="M8 2.66666C4.66667 2.66666 1.82001 4.73999 0.666672 7.66666C1.82001 10.5933 4.66667 12.6667 8 12.6667C11.3333 12.6667 14.18 10.5933 15.3333 7.66666C14.18 4.73999 11.3333 2.66666 8 2.66666ZM8 11C6.16 11 4.66667 9.50666 4.66667 7.66666C4.66667 5.82666 6.16 4.33332 8 4.33332C9.84 4.33332 11.3333 5.82666 11.3333 7.66666C11.3333 9.50666 9.84 11 8 11ZM8 5.66666C6.89334 5.66666 6 6.55999 6 7.66666C6 8.77332 6.89334 9.66666 8 9.66666C9.10667 9.66666 10 8.77332 10 7.66666C10 6.55999 9.10667 5.66666 8 5.66666Z" fill="#6D747A"/>
</g>
<defs>
<clipPath id="clip0_1_1781">
<rect width="16" height="16" fill="white"/>
</clipPath>
</defs>
</svg>
