<svg width="24" height="24" viewBox="0 0 24 24" fill="none" xmlns="http://www.w3.org/2000/svg">
<g clip-path="url(#clip0_26204_408)" filter="url(#filter0_d_26204_408)">
<path d="M19.9 8C19.9 11.9027 17.0699 15.1445 13.35 15.785V10.4125H15.1141H15.1999L15.2129 10.3277L15.5676 8.01516L15.5853 7.9H15.4688H13.35V6.49931C13.35 6.19752 13.4241 5.91182 13.6048 5.70282C13.7832 5.49653 14.0785 5.35 14.5537 5.35H15.5625H15.6625V5.25V3.28125V3.19687L15.5793 3.18268L15.5625 3.28125L15.5793 3.18267L15.5793 3.18266L15.5791 3.18264L15.5785 3.18254L15.5764 3.18219L15.5683 3.18084L15.5372 3.17579C15.5101 3.17146 15.4705 3.16529 15.4203 3.1579C15.32 3.14313 15.1772 3.12345 15.0068 3.10379C14.6666 3.0645 14.2147 3.025 13.7717 3.025C12.8378 3.025 12.0547 3.30837 11.5049 3.8587C10.9549 4.40912 10.65 5.21504 10.65 6.2375V7.9H8.71875H8.61875V8V10.3125V10.4125H8.71875H10.65V15.785C6.93015 15.1445 4.1 11.9027 4.1 8C4.1 3.63695 7.63695 0.1 12 0.1C16.3631 0.1 19.9 3.63695 19.9 8Z" fill="#1877F2" stroke="white" stroke-width="0.2"/>
<path d="M10.75 10.2125H8.81875V8.1H10.75H10.85V8V6.2375C10.85 5.25496 11.1422 4.50463 11.6463 4.00005C12.1505 3.49538 12.8782 3.225 13.7717 3.225C14.204 3.225 14.6475 3.26363 14.9839 3.30246C15.1518 3.32186 15.2926 3.34125 15.3912 3.35577C15.4182 3.35975 15.4421 3.36336 15.4625 3.36651V5.15H14.5537C14.0351 5.15 13.6786 5.31179 13.4535 5.572C13.2309 5.82949 13.15 6.16845 13.15 6.49931V8V8.1H13.25H15.3522L15.0282 10.2125H13.25H13.15V10.3125V15.8168C12.7746 15.8716 12.3907 15.9 12 15.9C11.6093 15.9 11.2254 15.8716 10.85 15.8168V10.3125V10.2125H10.75Z" fill="white" stroke="white" stroke-width="0.2"/>
</g>
<defs>
<filter id="filter0_d_26204_408" x="0" y="0" width="24" height="24" filterUnits="userSpaceOnUse" color-interpolation-filters="sRGB">
<feFlood flood-opacity="0" result="BackgroundImageFix"/>
<feColorMatrix in="SourceAlpha" type="matrix" values="0 0 0 0 0 0 0 0 0 0 0 0 0 0 0 0 0 0 127 0" result="hardAlpha"/>
<feOffset dy="4"/>
<feGaussianBlur stdDeviation="2"/>
<feComposite in2="hardAlpha" operator="out"/>
<feColorMatrix type="matrix" values="0 0 0 0 0 0 0 0 0 0 0 0 0 0 0 0 0 0 0.25 0"/>
<feBlend mode="normal" in2="BackgroundImageFix" result="effect1_dropShadow_26204_408"/>
<feBlend mode="normal" in="SourceGraphic" in2="effect1_dropShadow_26204_408" result="shape"/>
</filter>
<clipPath id="clip0_26204_408">
<rect width="16" height="16" fill="white" transform="translate(4)"/>
</clipPath>
</defs>
</svg>
